<svg xmlns="http://www.w3.org/2000/svg" xmlns:xlink="http://www.w3.org/1999/xlink" width="256" height="90" viewBox="0 0 256 90">
    <defs>
        <path id="a" d="M0 0h256v90H0z"/>
    </defs>
    <g fill="none" fill-rule="evenodd">
        <g>
            <mask id="b" fill="#fff">
                <use xlink:href="#a"/>
            </mask>
            <path fill="#444746" d="M251.002 52.079c0 1.394-1.121 2.528-2.499 2.528h-15.89v26.409c0 1.394-1.121 2.528-2.499 2.528h-7.12c-1.378 0-2.499-1.134-2.499-2.528v-11.33h-15.942v11.33c0 1.394-1.121 2.528-2.499 2.528h-7.12c-1.378 0-2.499-1.134-2.499-2.528v-26.41H82.854l-.532 1.807c-2.376 8.075-7.361 15.339-14.035 20.454-6.897 5.284-15.128 8.077-23.805 8.077-21.771 0-39.484-17.92-39.484-39.944 0-22.025 17.713-39.943 39.484-39.943 8.677 0 16.908 2.793 23.805 8.077 6.674 5.114 11.659 12.378 14.035 20.453l.532 1.806h165.649c1.378 0 2.499 1.134 2.499 2.528v14.158zm-2.499-21.742H86.538c-2.86-8.372-8.218-15.858-15.234-21.234C63.532 3.148 54.257 0 44.482 0 19.955 0 0 20.187 0 45s19.955 45 44.482 45c9.775 0 19.05-3.148 26.822-9.103 7.016-5.376 12.374-12.862 15.234-21.234h100.899v21.353c0 4.182 3.363 7.584 7.497 7.584h7.12c4.134 0 7.497-3.402 7.497-7.584v-6.273h5.946v6.273c0 4.182 3.363 7.584 7.497 7.584h7.12c4.134 0 7.497-3.402 7.497-7.584V59.663h10.892c4.134 0 7.497-3.402 7.497-7.584V37.92c0-4.181-3.363-7.584-7.497-7.584z" mask="url(#b)"/>
        </g>
        <path fill="#444746" d="M44.482 53.596c-4.685 0-8.497-3.855-8.497-8.595s3.812-8.596 8.497-8.596c4.685 0 8.497 3.855 8.497 8.596 0 4.74-3.812 8.595-8.497 8.595m0-22.247c-7.44 0-13.495 6.123-13.495 13.652 0 7.527 6.054 13.65 13.495 13.65 7.441 0 13.495-6.123 13.495-13.65 0-7.529-6.054-13.652-13.495-13.652"/>
    </g>
</svg>
