<?xml version="1.0" encoding="utf-8"?>
<!-- Generator: Adobe Illustrator 21.0.0, SVG Export Plug-In . SVG Version: 6.00 Build 0)  -->
<svg version="1.1" xmlns="http://www.w3.org/2000/svg" xmlns:xlink="http://www.w3.org/1999/xlink" x="0px" y="0px"
	 viewBox="0 0 200 184" style="enable-background:new 0 0 200 184;" xml:space="preserve">
<style type="text/css">
	.st0{fill:#444746;}
	.st1{fill:#D6C821;}
	.st2{fill:#FFFFFF;}
	.st3{font-family:'Seravek-Medium';}
	.st4{font-size:35.7192px;}
	.st5{fill:#0A5780;}
	.st6{fill:#4280A0;}
	.st7{fill:#FF00FF;}
	.st8{fill:#A6A6A6;}
	.st9{fill:#808080;}
	.st10{fill:none;stroke:#444746;stroke-miterlimit:10;}
	.st11{fill:none;stroke:#CCCCCC;stroke-miterlimit:10;}
	.st12{fill:none;stroke:#CCCCCC;stroke-width:0.9556;stroke-miterlimit:10;}
	.st13{opacity:0.7;}
	.st14{fill:none;stroke:#FFFFFF;stroke-width:3.6302;stroke-miterlimit:10;}
	.st15{fill:none;stroke:#666666;stroke-miterlimit:10;}
	.st16{fill:#FF0000;}
	.st17{fill:none;stroke:#808080;stroke-miterlimit:10;}
	.st18{fill:#666666;}
	.st19{fill:#CCCCCC;}
	.st20{fill:none;stroke:#666666;stroke-width:0.9939;stroke-miterlimit:10;}
	.st21{fill:none;stroke:#FFFFFF;stroke-width:0.9759;stroke-miterlimit:10;}
	.st22{fill:none;stroke:#A6A6A6;stroke-width:2;stroke-miterlimit:10;}
	.st23{fill:#A7A7A7;}
	.st24{fill:none;stroke:#A7A7A7;stroke-miterlimit:10;}
	.st25{fill:none;stroke:#A6A6A6;stroke-miterlimit:10;}
	.st26{fill:#3B5E66;}
	.st27{fill:none;stroke:#A6A6A6;stroke-width:0.9302;stroke-miterlimit:10;}
	.st28{fill:none;stroke:#A7A7A7;stroke-width:2;stroke-miterlimit:10;}
	.st29{fill:#ACACAC;}
	.st30{fill:none;stroke:#A6A6A6;stroke-width:0.677;stroke-miterlimit:10;}
	.st31{fill:none;stroke:#CCCCCC;stroke-width:0.9869;stroke-miterlimit:10;}
	.st32{fill:none;stroke:#000000;stroke-miterlimit:10;}
	.st33{fill:#386DA8;}
	.st34{fill:#D3201D;}
	.st35{fill:none;stroke:#000000;stroke-width:2;stroke-miterlimit:10;}
	.st36{fill:none;stroke:#4280A0;stroke-width:2;stroke-miterlimit:10;}
	.st37{opacity:0.6;}
	.st38{fill:none;stroke:#A6A6A6;stroke-width:3;stroke-miterlimit:10;}
	.st39{fill:none;stroke:#A6A6A6;stroke-width:1.0225;stroke-miterlimit:10;}
	.st40{clip-path:url(#SVGID_116_);fill:#D6C821;}
	.st41{fill:#DCCE21;}
	.st42{clip-path:url(#SVGID_128_);fill:#D6C821;}
	.st43{fill:none;stroke:#D1D1D1;stroke-miterlimit:10;}
	.st44{fill:#4280A2;}
	.st45{clip-path:url(#SVGID_142_);fill:#D6C821;}
	.st46{fill:none;stroke:#CCCCCC;stroke-width:0.9734;stroke-miterlimit:10;}
</style>
<g id="圖層_2">
	<g>
		<g>
			<path class="st0" d="M24.4,30.2v-9.8h37.9v9.8H24.4z M27.2,46.5v-8.9h32.3v8.9H27.2z M27.2,63.4v-8.9h32.3v8.9H27.2z M29.5,12.9
				V4h28.1v8.9H29.5z M63.7,112.5c-0.3-0.6-0.9-1.9-1.9-3.7c-0.6-1.9-1.3-3.3-1.9-4.2c9.7-2.2,19.7-4.4,29.9-6.6l3.7,6.6
				C84.3,107.7,74.3,110.3,63.7,112.5z M62.7,14.7V7.2h30.4v-7h11.7v7h31.4v7.5h-31.4v5.6h26.7v6.6h-65v-6.6h26.7v-5.6H62.7z
				 M64.1,50.8V32h69.7v18.7H64.1z M67.4,97.1V55.9h63.2v41.2H67.4z M74,37.7v7h10.8v-7H74z M78.2,62.5v5.6h41.6v-5.6H78.2z
				 M78.2,73.7v5.1h41.6v-5.1H78.2z M78.2,84.9v5.1h41.6v-5.1H78.2z M93.1,37.7v7h11.7v-7H93.1z M134.8,112.5
				c-8.1-1.6-18.6-4.4-31.4-8.4l3.7-7c10.3,2.5,20.6,4.8,30.9,7L134.8,112.5z M124.5,37.7h-11.7v7h11.7V37.7z"/>
		</g>
		<g>
			<path class="st0" d="M27.6,71.3v39.3H59V71.3H27.6z M50.1,102.1H37V80.7h13.1V102.1z"/>
		</g>
	</g>
	<text transform="matrix(0.9 0 0 1 99.1462 170.9298)" class="st0 st3 st4">READR</text>
	<g>
		<polygon class="st0" points="199.6,25.2 176.7,25.2 176.7,2.3 166.8,2.3 166.8,25.2 143.8,25.2 143.8,35.1 166.8,35.1 166.8,58.1 
			176.7,58.1 176.7,35.1 199.6,35.1 		"/>
	</g>
	<polygon class="st1" points="95.7,128.1 44,164 44,128 10,128 10,0 0,0 0,138 34,138 34,184 96,139 200,139 200,128 	"/>
</g>
<g id="圖層_1">
</g>
<g id="圖層_3">
</g>
</svg>
