<?xml version="1.0" encoding="utf-8"?>
<!-- Generator: Adobe Illustrator 21.0.0, SVG Export Plug-In . SVG Version: 6.00 Build 0)  -->
<svg version="1.1" id="圖層_1" xmlns="http://www.w3.org/2000/svg" xmlns:xlink="http://www.w3.org/1999/xlink" x="0px" y="0px"
	 viewBox="0 0 200 186" style="enable-background:new 0 0 200 186;" xml:space="preserve">
<style type="text/css">
	.st0{fill:#FFFFFF;}
	.st1{fill:#444746;}
	.st2{fill:#DDCF21;}
</style>
<polygon class="st0" points="200,22 178,22 178,0 166,0 166,22 144,22 144,34 166,34 166,56 178,56 178,34 200,34 "/>
<g>
	<g>
		<path class="st1" d="M114.6,154.4c0,1.7-0.5,3.2-1.5,4.4s-2.4,2.1-4.2,2.7l8.2,9.8h-6.3l-7-8.9h-1.6v8.9H97V147h7.3
			c1.5,0,2.9,0.2,4.2,0.5c1.3,0.3,2.3,0.8,3.3,1.4c0.9,0.6,1.6,1.4,2.1,2.3C114.3,152.1,114.6,153.1,114.6,154.4z M109.5,154.5
			c0-1.2-0.5-2.1-1.5-2.7c-1-0.6-2.2-0.8-3.8-0.8h-2.1v7.6h1.5c1.7,0,3.2-0.3,4.2-1C108.9,156.8,109.5,155.8,109.5,154.5z"/>
		<path class="st1" d="M119.7,147h14.6v4h-9.5v5.9h9v4h-9v6.3h9.6v4h-14.7L119.7,147L119.7,147z"/>
		<path class="st1" d="M160.9,171.2h-5.3l-1.7-5.1h-10l-1.7,5.1h-5.3l9.2-24.3h5.5L160.9,171.2z M148.9,151.1l-3.6,11h7.3
			L148.9,151.1z"/>
		<path class="st1" d="M164.1,147h7.3c2.1,0,4.1,0.3,5.8,0.9c1.7,0.6,3.2,1.5,4.4,2.5c1.2,1.1,2.2,2.4,2.8,3.8c0.7,1.5,1,3.1,1,4.8
			s-0.3,3.4-1,4.8c-0.7,1.5-1.6,2.8-2.8,3.8c-1.2,1.1-2.7,1.9-4.4,2.5s-3.7,0.9-5.8,0.9h-7.3V147z M171.6,167.2
			c1.3,0,2.5-0.2,3.6-0.5c1.1-0.4,2-0.9,2.8-1.6c0.8-0.7,1.4-1.5,1.8-2.5c0.4-1,0.7-2.1,0.7-3.4c0-1.3-0.2-2.4-0.7-3.4
			c-0.4-1-1.1-1.8-1.8-2.5c-0.8-0.7-1.7-1.2-2.8-1.6c-1.1-0.4-2.3-0.5-3.6-0.5h-2.3v16.2h2.3V167.2z"/>
		<path class="st1" d="M200,157.8h-0.8c-1.2,0-2.3,0.2-3.1,0.6c-0.8,0.4-1.5,0.9-2,1.7v11.2h-5v-17.7h4.8v3.1c0.3-1,0.9-1.9,1.6-2.4
			c0.7-0.6,1.7-0.9,3-0.9c0.6,0,1.1,0.1,1.5,0.2V157.8z"/>
	</g>
	<g>
		<g>
			<path class="st1" d="M22,30.8V20.7h38.9v10.1C60.9,30.8,22,30.8,22,30.8z M24.9,47.7v-9.1H58v9.1C58,47.7,24.9,47.7,24.9,47.7z
				 M24.9,65v-9.1H58V65H24.9z M27.3,13V3.9h28.8V13H27.3z M62.4,115.5c-0.3-0.6-1-1.9-1.9-3.9c-0.6-1.9-1.3-3.4-1.9-4.3
				c9.9-2.2,20.2-4.5,30.7-6.7l3.8,6.7C83.5,110.5,73.2,113.3,62.4,115.5z M61.4,14.9V7.2h31.2V0h12v7.2h32.2v7.7h-32.2v5.8H132v6.7
				H65.2v-6.7h27.4v-5.8C92.6,14.9,61.4,14.9,61.4,14.9z M62.8,52V32.7h71.6V52H62.8z M66.2,99.6V57.3h64.9v42.4L66.2,99.6
				L66.2,99.6z M72.9,38.5v7.2h11v-7.2H72.9z M77.2,64v5.8H120V64H77.2z M77.2,75.6v5.3H120v-5.3H77.2z M77.2,87.1v5.3H120v-5.3
				H77.2z M92.6,38.5v7.2h12v-7.2H92.6z M135.4,115.5c-8.3-1.6-19.1-4.5-32.2-8.7l3.8-7.2c10.6,2.6,21.1,5,31.7,7.2L135.4,115.5z
				 M124.8,38.5h-12v7.2h12V38.5z"/>
		</g>
		<g>
			<path class="st1" d="M25.4,73.2v40.4h32.2V73.2H25.4z M48.4,104.8H35v-22h13.5L48.4,104.8L48.4,104.8z"/>
		</g>
	</g>
	<polygon class="st2" points="91,126 46,157 46,126 12,126 12,0 0,0 0,138 33,138 33,184 98,138 200,138 200,126 	"/>
	<polygon class="st1" points="200,22 178,22 178,0 166,0 166,22 144,22 144,34 166,34 166,56 178,56 178,34 200,34 	"/>
</g>
</svg>
