<svg id="圖層_1" data-name="圖層 1" xmlns="http://www.w3.org/2000/svg" viewBox="0 0 180 218.87"><defs><style>.cls-1{fill:#fff;}</style></defs><title>閱讀器</title><path class="cls-1" d="M88.27,6.59H93.6v18C105.81,25,116,29.23,124.45,37c8.88,8,14.2,19.31,16.42,33.73h-5.55c-2.22-12.87-7.1-23.08-14.87-30.18-7.1-6.66-16.2-10.21-26.85-10.65v73.24c8.21,2.89,16.65,5.77,25.08,8.88,16.2,7.55,24.41,18.2,24.41,32.4q0,23.3-14,34.62c-8.43,6.44-20.2,9.77-35.51,10.21v19.31H88.27V189.25c-14.65-.67-25.75-5.77-33.73-15.31-7.77-8.88-12.65-21.75-14.87-38.4h5.55c2.22,16,6.66,27.74,13.54,35.51,6.88,8,16.64,12.21,29.52,12.87v-77q-10.32-4-20.64-7.32C51.21,92,43.22,81.16,43.22,67.18S47.66,42.54,57,35c7.77-6.66,18.2-10,31.29-10.43Zm0,23.3c-11.76.22-21.08,3.33-28,9.1-8,6.66-11.76,16-11.76,28.19,0,12.43,8,22,24.41,28.85q7.32,2.66,15.31,5.33Zm5.33,154c14.87-.44,26-4,33.51-10.65,7.1-6.66,10.65-16.42,10.65-28.85s-8.21-22.19-24.41-28.85c-6.66-2.44-13.09-4.66-19.75-6.88Z"/><path class="cls-1" d="M96.37,211.33H85.5V191.85c-14.15-1.17-25-6.46-33.09-16.14-8-9.1-13.19-22.5-15.49-39.81l-.42-3.14H47.63l.33,2.39c2.16,15.58,6.37,26.72,12.87,34.05C66.7,176,74.78,179.86,85.5,180.93V108.81c-6.23-2.37-12.51-4.59-18.72-6.59l-.31-.12c-17.27-7.94-26-19.69-26-34.92,0-15.05,4.84-26.28,14.79-34.34,7.57-6.49,17.51-10.09,30.27-10.92V3.82H96.37V22a49.1,49.1,0,0,1,30,13c9.12,8.21,14.94,20.11,17.29,35.35l.49,3.2H133l-.4-2.3c-2.15-12.45-6.86-22.07-14-28.61a37,37,0,0,0-22.21-9.72v68.3l4.57,1.6c6.11,2.13,12.42,4.34,18.69,6.64l.21.09c17.26,8,26,19.79,26,34.92,0,16.34-5.05,28.72-15,36.78-8.45,6.45-19.73,10-34.48,10.72Zm39.83-45.82a33.41,33.41,0,0,1-7.19,9.78A39.47,39.47,0,0,1,118.16,182a39.45,39.45,0,0,0,9.27-5.2A31.62,31.62,0,0,0,136.2,165.51Zm-39.83-53V181c12.66-.77,22.37-4.07,28.9-9.83,6.42-6,9.71-15.05,9.71-26.77,0-11.24-7.62-20.08-22.64-26.27C107.34,116.31,102.19,114.5,96.37,112.54ZM74,93.45c3.68,1.34,7.54,2.69,11.53,4V32.78c-9.67.61-17.53,3.41-23.41,8.34-7.25,6-10.77,14.57-10.77,26.06C51.32,78.46,58.73,87,74,93.45ZM130.7,49A57.62,57.62,0,0,1,136.18,62,53.79,53.79,0,0,0,130.7,49Z"/></svg>