<svg xmlns="http://www.w3.org/2000/svg" viewBox="0 0 180 200"><defs><style>.cls-1{fill:#fff;}</style></defs><title>目錄</title><g id="圖層_3" data-name="圖層 3"><path class="cls-1" d="M29,1A29,29,0,1,0,58,30,29,29,0,0,0,29,1Zm0,50A21,21,0,1,1,50,30,21,21,0,0,1,29,51Z"/><rect class="cls-1" x="80" y="26" width="100" height="8"/><path class="cls-1" d="M29,71a29,29,0,1,0,29,29A29,29,0,0,0,29,71Zm0,50a21,21,0,1,1,21-21A21,21,0,0,1,29,121Z"/><rect class="cls-1" x="80" y="96" width="100" height="8"/><path class="cls-1" d="M29,141a29,29,0,1,0,29,29A29,29,0,0,0,29,141Zm0,50a21,21,0,1,1,21-21A21,21,0,0,1,29,191Z"/><rect class="cls-1" x="80" y="166" width="100" height="8"/></g></svg>