<svg id="圖層_1" data-name="圖層 1" xmlns="http://www.w3.org/2000/svg" viewBox="0 0 180 218.87"><defs><style>.cls-1{fill:#fff;}</style></defs><title>閱讀器</title><path class="cls-1" d="M145.27,150.34a32.08,32.08,0,0,0-26.76,14.4L64.65,125.83l-.56.78a32,32,0,0,0,2.46-24L124.4,60.87l-.32-.44A32.06,32.06,0,1,0,118,53.22L62.2,93.51a32.1,32.1,0,1,0-3.26,40.22l-.13.17L114.32,174a32.09,32.09,0,1,0,31-23.65Zm0-136.1a22.13,22.13,0,1,1-22.13,22.13A22.16,22.16,0,0,1,145.27,14.23ZM35.73,133.74a22.13,22.13,0,1,1,22.13-22.13A22.16,22.16,0,0,1,35.73,133.74Zm109.55,70.82a22.13,22.13,0,1,1,22.13-22.13A22.16,22.16,0,0,1,145.27,204.56Z"/></svg>